<?xml version="1.0" standalone="no"?><!DOCTYPE svg PUBLIC "-//W3C//DTD SVG 1.1//EN" "http://www.w3.org/Graphics/SVG/1.1/DTD/svg11.dtd"><svg t="1592831132100" class="icon" viewBox="0 0 1024 1024" version="1.1" xmlns="http://www.w3.org/2000/svg" p-id="1903" xmlns:xlink="http://www.w3.org/1999/xlink" width="200" height="200"><defs><style type="text/css"></style></defs><path d="M768 949.333333H256A117.546667 117.546667 0 0 1 138.666667 832V213.333333A117.546667 117.546667 0 0 1 256 96h42.666667a32 32 0 1 1 0 64h-42.666667A53.333333 53.333333 0 0 0 202.666667 213.333333v618.666667a53.333333 53.333333 0 0 0 53.333333 53.333333h512a53.333333 53.333333 0 0 0 53.333333-53.333333V213.333333A53.333333 53.333333 0 0 0 768 160h-42.666667a32 32 0 0 1 0-64h42.666667a117.546667 117.546667 0 0 1 117.333333 117.333333v618.666667a117.546667 117.546667 0 0 1-117.333333 117.333333z" p-id="1904" fill="#1296db"></path><path d="M725.333333 554.666667H298.666667a32 32 0 0 1 0-64h426.666666a32 32 0 0 1 0 64zM725.333333 373.333333H298.666667a32 32 0 0 1 0-64h426.666666a32 32 0 0 1 0 64zM597.333333 736H298.666667a32 32 0 0 1 0-64h298.666666a32 32 0 0 1 0 64zM597.333333 160h-170.666666a42.666667 42.666667 0 0 1 0-85.333333h170.666666a42.666667 42.666667 0 0 1 0 85.333333z" p-id="1905" fill="#1296db"></path></svg>